<svg width="68" height="72" viewBox="0 0 68 72" fill="none" xmlns="http://www.w3.org/2000/svg">
<g filter="url(#filter0_d)">
<rect x="8" width="52" height="52" rx="11" fill="#D95129"/>
</g>
<path opacity="0.78" fill-rule="evenodd" clip-rule="evenodd" d="M36.6661 25.3664C37.2735 25.6897 37.9805 25.2141 37.9805 24.5016V23.532C40.2581 23.429 41.6133 20.9177 41.6133 16.7674C41.6133 12.4669 40.2368 10 37.835 10H21.7782C19.412 10 18 12.5302 18 16.7674C18 21.0678 19.3765 23.5348 21.7782 23.5348H33.2248L36.6661 25.3664ZM25.2656 16.7674C25.2656 16.2335 25.6723 15.8006 26.1738 15.8006C26.6754 15.8006 27.082 16.2335 27.082 16.7674C27.082 17.3013 26.6754 17.7342 26.1738 17.7342C25.6723 17.7342 25.2656 17.3013 25.2656 16.7674ZM28.8984 16.7674C28.8984 16.2335 29.3051 15.8006 29.8066 15.8006C30.3082 15.8006 30.7148 16.2335 30.7148 16.7674C30.7148 17.3013 30.3082 17.7342 29.8066 17.7342C29.3051 17.7342 28.8984 17.3013 28.8984 16.7674ZM33.4395 17.7342C33.941 17.7342 34.3477 17.3013 34.3477 16.7674C34.3477 16.2335 33.941 15.8006 33.4395 15.8006C32.9379 15.8006 32.5312 16.2335 32.5312 16.7674C32.5312 17.3013 32.9379 17.7342 33.4395 17.7342ZM39.918 34.2982C39.918 33.7643 40.3246 33.3314 40.8262 33.3314C41.3277 33.3314 41.7344 33.7643 41.7344 34.2982C41.7344 34.8321 41.3277 35.2649 40.8262 35.2649C40.3246 35.2649 39.918 34.8321 39.918 34.2982ZM37.1934 33.3314C36.6918 33.3314 36.2852 33.7643 36.2852 34.2982C36.2852 34.8321 36.6918 35.2649 37.1934 35.2649C37.6949 35.2649 38.1016 34.8321 38.1016 34.2982C38.1016 33.7643 37.6949 33.3314 37.1934 33.3314ZM32.6523 34.2982C32.6523 33.7643 33.059 33.3314 33.5605 33.3314C34.0621 33.3314 34.4688 33.7643 34.4688 34.2982C34.4688 34.8321 34.0621 35.2649 33.5605 35.2649C33.059 35.2649 32.6523 34.8321 32.6523 34.2982ZM29.165 27.5308H45.2218C47.588 27.5308 49 30.061 49 34.2982C49 38.5986 47.6235 41.0656 45.2218 41.0656H33.7752L30.3339 42.8971C29.7314 43.2179 29.0195 42.7495 29.0195 42.0323V41.0627C26.7419 40.9598 25.3867 38.4485 25.3867 34.2982C25.3867 29.9977 26.7632 27.5308 29.165 27.5308Z" fill="url(#paint0_radial)"/>
<defs>
<filter id="filter0_d" x="0" y="0" width="68" height="72" filterUnits="userSpaceOnUse" color-interpolation-filters="sRGB">
<feFlood flood-opacity="0" result="BackgroundImageFix"/>
<feColorMatrix in="SourceAlpha" type="matrix" values="0 0 0 0 0 0 0 0 0 0 0 0 0 0 0 0 0 0 127 0"/>
<feMorphology radius="7" operator="erode" in="SourceAlpha" result="effect1_dropShadow"/>
<feOffset dy="12"/>
<feGaussianBlur stdDeviation="7.5"/>
<feColorMatrix type="matrix" values="0 0 0 0 0.851804 0 0 0 0 0.318943 0 0 0 0 0.162956 0 0 0 1 0"/>
<feBlend mode="normal" in2="BackgroundImageFix" result="effect1_dropShadow"/>
<feBlend mode="normal" in="SourceGraphic" in2="effect1_dropShadow" result="shape"/>
</filter>
<radialGradient id="paint0_radial" cx="0" cy="0" r="1" gradientUnits="userSpaceOnUse" gradientTransform="translate(51.4406 43) rotate(-141.261) scale(26.3672 26.7764)">
<stop stop-color="#F1F3F5" stop-opacity="0.355469"/>
<stop offset="1" stop-color="white"/>
</radialGradient>
</defs>
</svg>
