<svg width="68" height="72" viewBox="0 0 68 72" fill="none" xmlns="http://www.w3.org/2000/svg">
<g filter="url(#filter0_d)">
<rect x="8" width="52" height="52" rx="11" fill="#44C4A1"/>
</g>
<path opacity="0.78" fill-rule="evenodd" clip-rule="evenodd" d="M46.3008 14H20.6992C19.7607 14 19 14.7626 19 15.7034V28.5058H48V15.7034C48 14.7626 47.2393 14 46.3008 14ZM29.3242 23.8536C29.7117 24.1188 29.8114 24.6487 29.5468 25.0372C29.3823 25.2788 29.1157 25.4088 28.8444 25.4088C28.6794 25.4088 28.5127 25.3607 28.3661 25.2604L25.2505 23.1281C24.9701 22.9363 24.8028 22.6186 24.8028 22.2784C24.8029 21.9382 24.9703 21.6206 25.2505 21.4288L28.3661 19.2965C28.7536 19.0313 29.2823 19.1312 29.5468 19.5197C29.8114 19.9082 29.7117 20.4381 29.3242 20.7034L27.0226 22.2785L29.3242 23.8536ZM32.5352 25.737L35.946 19.6545C36.1759 19.2445 36.0308 18.7252 35.6218 18.4947C35.2128 18.2642 34.6948 18.4097 34.4648 18.8198L31.054 24.9023C30.8241 25.3123 30.9693 25.8316 31.3784 26.0621C31.51 26.1363 31.6528 26.1715 31.7939 26.1715C32.0909 26.1715 32.3793 26.0151 32.5352 25.737ZM41.7496 23.1281L38.6339 25.2604C38.4874 25.3607 38.3206 25.4088 38.1556 25.4088C37.8843 25.4088 37.6177 25.2788 37.4532 25.0372C37.1886 24.6487 37.2883 24.1188 37.6758 23.8536L39.9774 22.2784L37.6758 20.7033C37.2883 20.438 37.1886 19.9081 37.4532 19.5196C37.7177 19.1312 38.2464 19.0312 38.6339 19.2964L41.7495 21.4287C42.0297 21.6204 42.1971 21.9381 42.1972 22.2783C42.1972 22.6186 42.0299 22.9362 41.7496 23.1281ZM19 32.0718V30.2093H48V32.0718C48 33.0126 47.2393 33.7753 46.3008 33.7753H36.0209V37.2966H38.1499C38.6191 37.2966 38.9995 37.6779 38.9995 38.1483C38.9995 38.6187 38.6191 39 38.1499 39H28.8502C28.381 39 28.0006 38.6187 28.0006 38.1483C28.0006 37.6779 28.381 37.2966 28.8502 37.2966H30.9792V33.7753H20.6992C19.7607 33.7753 19 33.0126 19 32.0718Z" fill="url(#paint0_radial)"/>
<defs>
<filter id="filter0_d" x="0" y="0" width="68" height="72" filterUnits="userSpaceOnUse" color-interpolation-filters="sRGB">
<feFlood flood-opacity="0" result="BackgroundImageFix"/>
<feColorMatrix in="SourceAlpha" type="matrix" values="0 0 0 0 0 0 0 0 0 0 0 0 0 0 0 0 0 0 127 0"/>
<feMorphology radius="7" operator="erode" in="SourceAlpha" result="effect1_dropShadow"/>
<feOffset dy="12"/>
<feGaussianBlur stdDeviation="7.5"/>
<feColorMatrix type="matrix" values="0 0 0 0 0.266667 0 0 0 0 0.768627 0 0 0 0 0.631373 0 0 0 1 0"/>
<feBlend mode="normal" in2="BackgroundImageFix" result="effect1_dropShadow"/>
<feBlend mode="normal" in="SourceGraphic" in2="effect1_dropShadow" result="shape"/>
</filter>
<radialGradient id="paint0_radial" cx="0" cy="0" r="1" gradientUnits="userSpaceOnUse" gradientTransform="translate(50.2831 39) rotate(-146.988) scale(22.9437 21.808)">
<stop stop-color="#F1F3F5" stop-opacity="0.355469"/>
<stop offset="1" stop-color="white"/>
</radialGradient>
</defs>
</svg>
