<svg width="64" height="96" viewBox="0 0 64 96" fill="none" xmlns="http://www.w3.org/2000/svg">
<g filter="url(#filter0_dd)">
<circle cx="32" cy="48" r="25" fill="white"/>
</g>
<mask id="mask0" mask-type="alpha" maskUnits="userSpaceOnUse" x="7" y="23" width="50" height="50">
<circle cx="32" cy="48" r="25" fill="white"/>
</mask>
<g mask="url(#mask0)">
<path d="M53.0083 47.8161C53.0392 47.8181 53.0691 47.8209 53.1 47.8233C52.7594 36.2286 43.2541 26.9331 31.577 26.9331C23.5011 26.9331 16.465 31.3798 12.7798 37.9575C13.5327 38.3486 28.6605 46.0682 53.0083 47.8161Z" fill="#ECEDF0"/>
<path d="M47.3748 46.4089V40.4382C47.3748 39.011 46.2178 37.854 44.7903 37.854C43.6178 37.854 20.0491 37.854 12.8376 37.854C11.0598 40.9865 10.0439 44.6078 10.0439 48.4668C10.0439 53.309 11.6425 57.7777 14.3403 61.3744V48.8506C14.3403 47.5045 15.4355 46.4089 16.7817 46.4089H47.3748Z" fill="#67B734"/>
<path d="M19.6021 40.5117C18.7328 40.6572 17.9764 39.9843 17.9764 39.1384C17.9764 38.5612 18.327 38.0658 18.8272 37.854C16.3824 37.854 14.2819 37.854 12.8379 37.854C11.0598 40.9865 10.0439 44.6078 10.0439 48.4668C10.0439 53.309 11.6425 57.7777 14.3403 61.3744V48.8506C14.3403 47.5045 15.4355 46.4089 16.782 46.4089H19.6021V40.5117Z" fill="#5AAA26"/>
<path d="M14.3401 48.8506C14.3401 47.5044 15.4353 46.4089 16.7815 46.4089H44.8059V45.565C44.8059 44.7551 44.1494 44.0983 43.3392 44.0983H42.6186C41.7905 44.0983 41.1189 43.4268 41.1189 42.5983V41.889C41.1189 41.0791 40.4622 40.4224 39.6523 40.4224C38.5224 40.4224 17.178 40.4224 15.942 40.4224C15.1321 40.4224 14.4754 41.0791 14.4754 41.889V42.5983C14.4754 43.4268 13.8038 44.0983 12.9754 44.0983H12.2548C11.4449 44.0983 10.7881 44.7551 10.7881 45.565V53.8765C10.7881 54.6864 11.4449 55.3432 12.2548 55.3432H12.9754C13.5824 55.3432 14.1039 55.7043 14.3401 56.2228V48.8506Z" fill="#89D362"/>
<rect x="28" y="29" width="20" height="15" rx="7.5" fill="#0D880D"/>
<path d="M12.9757 55.3432C13.5707 55.3432 14.1008 55.6971 14.3401 56.2228V48.8506C14.3401 47.5041 15.4353 46.4089 16.7815 46.4089H17.7902V41.4771C17.7902 40.8968 18.2646 40.4224 18.8448 40.4224C17.2731 40.4224 16.193 40.4224 15.942 40.4224C15.1363 40.4224 14.4754 41.0754 14.4754 41.889V42.5983C14.4754 43.4439 13.7819 44.0983 12.9757 44.0983H12.2551C11.4449 44.0983 10.7881 44.7548 10.7881 45.565V53.8765C10.7881 54.6847 11.4428 55.3432 12.2551 55.3432H12.9757Z" fill="#76C647"/>
<path d="M32.7717 46.4086C31.7013 44.8067 29.8768 43.751 27.8052 43.751C25.7336 43.751 23.9089 44.8067 22.8384 46.4086H32.7717Z" fill="#67B734"/>
<path d="M27.4198 43.7637C25.5085 43.8852 23.8424 44.9069 22.8389 46.409H27.5252C25.8275 46.409 25.7259 43.8715 27.4198 43.7637Z" fill="#5AAA26"/>
<path d="M53.1102 48.4665C53.1102 48.2193 53.1043 47.9731 53.0961 47.728C52.6783 46.8628 51.7928 46.2661 50.7677 46.2661C49.4126 46.2661 18.1396 46.2661 16.7815 46.2661C15.3543 46.2661 14.1973 47.4231 14.1973 48.8503V61.1797C18.1153 66.5266 24.44 69.9997 31.577 69.9997C43.4693 69.9997 53.1102 60.3588 53.1102 48.4665Z" fill="#76C647"/>
<path d="M25.0061 48.9526C24.3301 48.8424 23.8137 48.2574 23.8137 47.5501C23.8137 46.983 24.1468 46.4944 24.6274 46.2661C20.3692 46.2661 17.1941 46.2661 16.7815 46.2661C15.3543 46.2661 14.1973 47.4231 14.1973 48.8503V61.1797C16.6167 64.4814 19.9538 67.0677 23.8326 68.5639C23.9274 67.959 24.4025 67.4807 25.0061 67.3822V48.9526Z" fill="#67B734"/>
<path d="M50.7834 58.2106V53.9771C50.7834 53.1672 50.127 52.5104 49.3167 52.5104H48.5961C47.7677 52.5104 47.0965 51.8389 47.0965 51.0105V50.3011C47.0965 49.4912 46.4397 48.8345 45.6295 48.8345C44.4999 48.8345 23.1555 48.8345 21.9196 48.8345C21.1097 48.8345 20.4529 49.4909 20.4529 50.3011V51.0105C20.4529 51.8389 19.7814 52.5104 18.9529 52.5104H18.2323C17.4224 52.5104 16.7656 53.1669 16.7656 53.9771V62.2886C16.7656 63.0985 17.4224 63.7553 18.2323 63.7553H18.9529C19.7814 63.7553 20.4529 64.4268 20.4529 65.2553V65.9646C20.4529 66.7745 21.1097 67.4312 21.9196 67.4312H41.7832C45.6422 65.3497 48.7935 62.1252 50.7834 58.2106Z" fill="#9CE67A"/>
<path d="M39.7525 58.1329C39.7525 61.4299 37.0798 64.1026 33.7828 64.1026C30.4862 64.1026 27.8135 61.4299 27.8135 58.1329C27.8135 54.836 30.4862 52.1636 33.7828 52.1636C37.0798 52.1636 39.7525 54.836 39.7525 58.1329Z" fill="#76C647"/>
<path d="M35.5822 61.3743C35.5822 61.0698 35.6749 60.7859 35.8335 60.549L35.3642 60.0467V57.9813H31.9145V55.762H32.6176V55.1423C32.5891 55.144 32.5613 55.1468 32.5324 55.1468C31.7122 55.1468 31.0411 54.4753 31.0411 53.6551C31.0411 53.263 31.1955 52.9059 31.4451 52.6392C29.3104 53.5486 27.8135 55.6659 27.8135 58.133C27.8135 61.4299 30.4862 64.1024 33.7828 64.1024C35.1884 64.1024 36.4796 63.6155 37.4996 62.8025C37.3644 62.8434 37.2215 62.8657 37.0736 62.8657C36.2534 62.8657 35.5822 62.1945 35.5822 61.3743Z" fill="#67B734"/>
<path d="M30.6266 35.2569L34.4086 31.4748C34.9992 30.8843 35.9371 30.8387 36.5434 31.3711C37.228 31.9726 37.2332 33.0019 36.6179 33.6172L35.476 34.7594C35.4726 34.7625 35.463 34.7724 35.4699 34.7893C35.4771 34.8064 35.4908 34.8064 35.4953 34.8064H44.2136C45.0489 34.8064 45.7445 35.4371 45.7967 36.2426C45.8554 37.152 45.131 37.8833 44.2613 37.8833H35.4953C35.4908 37.8833 35.4767 37.8833 35.4699 37.9001C35.4626 37.9173 35.4726 37.9269 35.4757 37.9303L36.5843 39.0386C37.1751 39.6294 37.2205 40.5674 36.688 41.174C36.0868 41.8579 35.0575 41.8638 34.4423 41.2482L30.6266 37.4329C30.0268 36.8327 30.0268 35.8567 30.6266 35.2569Z" fill="#E2E2E2"/>
<path d="M43.0683 58.8463H42.0181C41.624 58.8463 41.3047 58.527 41.3047 58.1329C41.3047 57.7387 41.624 57.4194 42.0181 57.4194H43.0683C43.4621 57.4194 43.7818 57.7387 43.7818 58.1329C43.7818 58.527 43.4621 58.8463 43.0683 58.8463Z" fill="#76C647"/>
<path d="M25.5317 58.8463H24.4815C24.0874 58.8463 23.7681 58.527 23.7681 58.1329C23.7681 57.7387 24.0874 57.4194 24.4815 57.4194H25.5317C25.9255 57.4194 26.2451 57.7387 26.2451 58.1329C26.2451 58.527 25.9255 58.8463 25.5317 58.8463Z" fill="#76C647"/>
<path d="M45.7967 36.2425C45.7445 35.437 45.0492 34.806 44.2136 34.806H35.4953C35.4932 34.806 35.4894 34.8057 35.4856 34.8043C35.1955 35.0426 34.8247 35.1854 34.4203 35.1854C33.4927 35.1854 32.7404 34.4335 32.7404 33.5059C32.7404 33.3613 32.7607 33.2219 32.7947 33.0884L30.6266 35.2568C30.0268 35.8566 30.0268 36.8327 30.6266 37.4324L34.4423 41.2481C35.0575 41.8637 36.0868 41.8575 36.688 41.1736C37.2205 40.5673 37.1751 39.6294 36.5843 39.0385L35.476 37.9299C35.4726 37.9268 35.463 37.9169 35.4699 37.9C35.4771 37.8829 35.4908 37.8829 35.4953 37.8829H44.2613C45.1313 37.8832 45.8554 37.1519 45.7967 36.2425Z" fill="white"/>
<path d="M23.7677 66.3762V49.8892C23.7677 49.3089 24.2422 48.8345 24.8224 48.8345C23.2506 48.8345 22.1706 48.8345 21.9196 48.8345C21.1097 48.8345 20.4529 49.4909 20.4529 50.3011V51.0105C20.4529 51.8389 19.7814 52.5104 18.9529 52.5104H18.2323C17.4224 52.5104 16.7656 53.1669 16.7656 53.9771V62.2886C16.7656 63.0985 17.4224 63.7553 18.2323 63.7553H18.9529C19.7814 63.7553 20.4529 64.4268 20.4529 65.2553V65.9646C20.4529 66.7745 21.1093 67.4312 21.9196 67.4312H24.8224C24.2422 67.4309 23.7677 66.9564 23.7677 66.3762Z" fill="#89D362"/>
</g>
<defs>
<filter id="filter0_dd" x="0" y="0" width="64" height="96" filterUnits="userSpaceOnUse" color-interpolation-filters="sRGB">
<feFlood flood-opacity="0" result="BackgroundImageFix"/>
<feColorMatrix in="SourceAlpha" type="matrix" values="0 0 0 0 0 0 0 0 0 0 0 0 0 0 0 0 0 0 127 0"/>
<feMorphology radius="6" operator="erode" in="SourceAlpha" result="effect1_dropShadow"/>
<feOffset dy="16"/>
<feGaussianBlur stdDeviation="6.5"/>
<feColorMatrix type="matrix" values="0 0 0 0 0.822276 0 0 0 0 0.827284 0 0 0 0 0.842306 0 0 0 1 0"/>
<feBlend mode="normal" in2="BackgroundImageFix" result="effect1_dropShadow"/>
<feColorMatrix in="SourceAlpha" type="matrix" values="0 0 0 0 0 0 0 0 0 0 0 0 0 0 0 0 0 0 127 0"/>
<feMorphology radius="6" operator="erode" in="SourceAlpha" result="effect2_dropShadow"/>
<feOffset dy="-16"/>
<feGaussianBlur stdDeviation="6.5"/>
<feColorMatrix type="matrix" values="0 0 0 0 1 0 0 0 0 1 0 0 0 0 1 0 0 0 1 0"/>
<feBlend mode="normal" in2="effect1_dropShadow" result="effect2_dropShadow"/>
<feBlend mode="normal" in="SourceGraphic" in2="effect2_dropShadow" result="shape"/>
</filter>
</defs>
</svg>
