<svg width="64" height="96" viewBox="0 0 64 96" fill="none" xmlns="http://www.w3.org/2000/svg">
<g filter="url(#filter0_dd)">
<circle cx="32" cy="48" r="25" fill="white"/>
</g>
<mask id="mask0" mask-type="alpha" maskUnits="userSpaceOnUse" x="7" y="23" width="50" height="50">
<circle cx="32" cy="48" r="25" fill="white"/>
</mask>
<g mask="url(#mask0)">
<circle cx="32" cy="48" r="22" fill="#ECEDF0"/>
<mask id="mask1" mask-type="alpha" maskUnits="userSpaceOnUse" x="10" y="26" width="44" height="44">
<circle cx="32" cy="48" r="22" fill="white"/>
</mask>
<g mask="url(#mask1)">
<path d="M42.3783 45.7339H28.8413L25.5242 41.6997C25.3449 41.4307 24.9863 41.2515 24.6277 41.2515H11.0009C10.3733 41.2515 9.83545 41.7894 9.83545 42.4169V68.505C9.83545 69.1326 10.3733 69.6705 11.0009 69.6705H42.3783C43.0059 69.6705 43.5438 69.1326 43.5438 68.505V46.9891C43.5438 46.2718 43.0956 45.7339 42.3783 45.7339Z" fill="#FEA832"/>
<path d="M38.1647 35.0654H20.5037L13.4214 42.1478V64.2016C13.4214 65.1878 14.2282 65.9946 15.2144 65.9946H38.2543C39.2404 65.9946 40.0473 65.1878 40.0473 64.2016V36.8585C39.9577 35.8723 39.2405 35.0654 38.1647 35.0654Z" fill="white"/>
<rect x="26.062" y="41.6997" width="10.3098" height="2.06192" fill="#CED3D6"/>
<rect x="17.0073" y="46.6304" width="19.454" height="2.06192" fill="#CED3D6"/>
<rect x="17.0073" y="51.561" width="19.454" height="2.06192" fill="#CED3D6"/>
<path d="M7.14576 55.4162H32.7856L37.7164 50.3958C38.075 50.0372 38.5232 49.8579 39.0611 49.8579H47.9365C48.833 49.8579 49.2812 50.5751 49.102 51.3819L43.723 68.505C43.723 69.1326 43.1851 69.6705 42.5575 69.6705H11.18C10.5524 69.6705 10.0145 69.1326 10.0145 68.505L6.06996 56.7609C5.80101 56.0437 6.33891 55.4162 7.14576 55.4162Z" fill="#FEDB41"/>
<path d="M20.5037 35.0654L13.4214 42.1478H20.5037V35.0654Z" fill="#B1B6B9"/>
</g>
</g>
<defs>
<filter id="filter0_dd" x="0" y="0" width="64" height="96" filterUnits="userSpaceOnUse" color-interpolation-filters="sRGB">
<feFlood flood-opacity="0" result="BackgroundImageFix"/>
<feColorMatrix in="SourceAlpha" type="matrix" values="0 0 0 0 0 0 0 0 0 0 0 0 0 0 0 0 0 0 127 0"/>
<feMorphology radius="6" operator="erode" in="SourceAlpha" result="effect1_dropShadow"/>
<feOffset dy="16"/>
<feGaussianBlur stdDeviation="6.5"/>
<feColorMatrix type="matrix" values="0 0 0 0 0.822276 0 0 0 0 0.827284 0 0 0 0 0.842306 0 0 0 1 0"/>
<feBlend mode="normal" in2="BackgroundImageFix" result="effect1_dropShadow"/>
<feColorMatrix in="SourceAlpha" type="matrix" values="0 0 0 0 0 0 0 0 0 0 0 0 0 0 0 0 0 0 127 0"/>
<feMorphology radius="6" operator="erode" in="SourceAlpha" result="effect2_dropShadow"/>
<feOffset dy="-16"/>
<feGaussianBlur stdDeviation="6.5"/>
<feColorMatrix type="matrix" values="0 0 0 0 1 0 0 0 0 1 0 0 0 0 1 0 0 0 1 0"/>
<feBlend mode="normal" in2="effect1_dropShadow" result="effect2_dropShadow"/>
<feBlend mode="normal" in="SourceGraphic" in2="effect2_dropShadow" result="shape"/>
</filter>
</defs>
</svg>
