<svg width="64" height="96" viewBox="0 0 64 96" fill="none" xmlns="http://www.w3.org/2000/svg">
<g filter="url(#filter0_dd)">
<circle cx="32" cy="48" r="25" fill="white"/>
</g>
<mask id="mask0" mask-type="alpha" maskUnits="userSpaceOnUse" x="7" y="23" width="50" height="50">
<circle cx="32" cy="48" r="25" fill="white"/>
</mask>
<g mask="url(#mask0)">
<path d="M53.6631 47.8316C53.6631 59.8887 43.8887 69.6631 31.8316 69.6631C19.7744 69.6631 10 59.8887 10 47.8316C10 35.7741 19.7744 26 31.8316 26C43.8887 26 53.6631 35.7741 53.6631 47.8316Z" fill="#ECEDF0"/>
<mask id="mask1" mask-type="alpha" maskUnits="userSpaceOnUse" x="10" y="26" width="44" height="44">
<path d="M53.6631 47.8316C53.6631 59.8887 43.8887 69.6631 31.8316 69.6631C19.7744 69.6631 10 59.8887 10 47.8316C10 35.7741 19.7744 26 31.8316 26C43.8887 26 53.6631 35.7741 53.6631 47.8316Z" fill="white"/>
</mask>
<g mask="url(#mask1)">
<path d="M16.9497 47.0806H19.9412V64.9896H16.9497V47.0806Z" fill="#44C4A1"/>
<path d="M44.0854 47.0806H47.077V64.9896H44.0854V47.0806Z" fill="#44C4A1"/>
<path fill-rule="evenodd" clip-rule="evenodd" d="M33.0114 30.8952L46.97 38.9426L47.2678 39.3157V39.4152L49.4186 40.6552C50.3411 41.187 50.2855 42.5364 49.3225 42.9905L48.8477 43.2145V44.4197C48.8477 44.9473 48.5087 45.3957 48.0366 45.559V45.6248H47.6593C47.6537 45.6249 47.648 45.6249 47.6424 45.6249H47.6233V47.2215C47.6233 47.8005 47.1539 48.2698 46.575 48.2698H45.7034C45.6165 48.3107 45.5194 48.3336 45.4171 48.3336H44.0481C43.4692 48.3336 42.9998 47.8642 42.9998 47.2853V45.6248H21.2631V47.0353C21.2631 47.6143 20.7939 48.0836 20.2148 48.0836H17.7166L17.7066 48.0836H16.6762C16.0973 48.0836 15.6279 47.6143 15.6279 47.0353V44.7501H15.6738C15.6439 44.6451 15.6279 44.5342 15.6279 44.4196V43.6233H14.8591L14.3843 43.3994C13.4211 42.9452 13.3656 41.5958 14.2881 41.064L31.9266 30.8952C32.2622 30.7016 32.6756 30.7016 33.0114 30.8952Z" fill="#26B99A"/>
<path fill-rule="evenodd" clip-rule="evenodd" d="M15.6279 66.438V66.6563V67.602C15.6279 67.9708 15.927 70.2698 16.2958 70.2698H47.9899V68.2699H50.1798C50.5487 68.2699 50.8477 67.9708 50.8477 67.6021V66.4381C50.8477 66.0692 50.5487 65.7702 50.1798 65.7702H49.6232V64.3711C49.6233 63.7921 49.1539 63.3228 48.575 63.3228H46.0068H45.709H45.0363C44.4574 63.3228 43.988 63.7921 43.988 64.3711V65.7702H21.2631V64.3711C21.2631 63.7921 20.7938 63.3228 20.2148 63.3228H17.5847H17.3489H16.6762C16.0973 63.3228 15.6279 63.7921 15.6279 64.3711V66.438Z" fill="#26B99A"/>
<path d="M28.4628 62.3455H27.5259C27.1532 62.3455 26.8511 62.0434 26.8511 61.6706V56.9326H30.2107L29.1214 61.8175C29.0526 62.126 28.7789 62.3455 28.4628 62.3455Z" fill="#D95129"/>
<path d="M26.1452 53.252L24.5706 53.2521C23.5543 53.2522 22.7304 54.0762 22.7305 55.0926C22.7305 56.1089 23.5546 56.9328 24.5709 56.9327L26.1455 56.9326L26.1452 53.252Z" fill="#FEDB41"/>
<path d="M38.0183 50.7329L37.3895 50.0005C35.9069 51.5778 33.7449 52.2358 31.4268 52.2359L30.7242 52.236L30.3755 52.743V57.2592L30.7246 57.7675L31.4272 57.7675C33.7454 57.7673 35.9074 58.4249 37.3904 60.002L38.0184 59.2692V50.7329H38.0183Z" fill="#FEDB41"/>
<path d="M30.7242 52.2358L26.4703 52.2362C25.9853 52.2363 25.5923 52.6294 25.5923 53.1143L25.5926 56.8897C25.5927 57.3746 25.9858 57.7677 26.4707 57.7677L30.7246 57.7673L30.7242 52.2358Z" fill="#FEA832"/>
<path fill-rule="evenodd" clip-rule="evenodd" d="M46.5142 41.2361L46.812 41.4078L49.6231 43.0284H46.812H46.5142H14.4033L31.4708 33.1886C31.8065 32.9951 32.2199 32.9951 32.5556 33.1886L46.5142 41.2361Z" fill="#44C4A1"/>
<path fill-rule="evenodd" clip-rule="evenodd" d="M34.3308 38.5014C34.3308 39.7815 33.2931 40.8192 32.013 40.8192C30.733 40.8192 29.6952 39.7815 29.6952 38.5014C29.6952 37.2213 30.733 36.1836 32.013 36.1836C33.2931 36.1836 34.3308 37.2213 34.3308 38.5014ZM38.7622 40.2364H37.0224C36.7046 40.2364 36.447 39.9789 36.447 39.6611C36.447 39.3433 36.7046 39.0857 37.0224 39.0857H38.7622C39.08 39.0857 39.3376 39.3433 39.3376 39.6611C39.3376 39.9789 39.08 40.2364 38.7622 40.2364ZM25.2638 40.2364H27.0037C27.3215 40.2364 27.579 39.9789 27.579 39.6611C27.579 39.3433 27.3215 39.0857 27.0037 39.0857H25.2638C24.9461 39.0857 24.6885 39.3433 24.6885 39.6611C24.6885 39.9789 24.9461 40.2364 25.2638 40.2364Z" fill="#ECEFF1"/>
<path d="M38.4421 61.4843C39.0227 61.4842 39.4934 61.0134 39.4934 60.4328L39.4924 49.5689C39.4924 48.9883 39.0217 48.5176 38.4409 48.5176C37.8603 48.5177 37.3896 48.9884 37.3896 49.5691L37.3906 60.4329C37.3905 61.0136 37.8613 61.4843 38.4421 61.4843Z" fill="#FEA832"/>
</g>
</g>
<defs>
<filter id="filter0_dd" x="0" y="0" width="64" height="96" filterUnits="userSpaceOnUse" color-interpolation-filters="sRGB">
<feFlood flood-opacity="0" result="BackgroundImageFix"/>
<feColorMatrix in="SourceAlpha" type="matrix" values="0 0 0 0 0 0 0 0 0 0 0 0 0 0 0 0 0 0 127 0"/>
<feMorphology radius="6" operator="erode" in="SourceAlpha" result="effect1_dropShadow"/>
<feOffset dy="16"/>
<feGaussianBlur stdDeviation="6.5"/>
<feColorMatrix type="matrix" values="0 0 0 0 0.822276 0 0 0 0 0.827284 0 0 0 0 0.842306 0 0 0 1 0"/>
<feBlend mode="normal" in2="BackgroundImageFix" result="effect1_dropShadow"/>
<feColorMatrix in="SourceAlpha" type="matrix" values="0 0 0 0 0 0 0 0 0 0 0 0 0 0 0 0 0 0 127 0"/>
<feMorphology radius="6" operator="erode" in="SourceAlpha" result="effect2_dropShadow"/>
<feOffset dy="-16"/>
<feGaussianBlur stdDeviation="6.5"/>
<feColorMatrix type="matrix" values="0 0 0 0 1 0 0 0 0 1 0 0 0 0 1 0 0 0 1 0"/>
<feBlend mode="normal" in2="effect1_dropShadow" result="effect2_dropShadow"/>
<feBlend mode="normal" in="SourceGraphic" in2="effect2_dropShadow" result="shape"/>
</filter>
</defs>
</svg>
