<svg width="68" height="72" viewBox="0 0 68 72" fill="none" xmlns="http://www.w3.org/2000/svg">
<g filter="url(#filter0_d)">
<rect x="8" width="52" height="52" rx="11" fill="#FEA832"/>
</g>
<path opacity="0.78" d="M27.6437 37.1103L30.037 36.2402L31.4274 33.2572L28.7098 25.7309L25.7268 24.3405L23.3344 25.2106L23.0197 25.8856L22.8 25.2818V23.56C22.8 20.6546 23.8712 17.939 25.6309 15.8909L26.3459 16.6059C27.2639 17.542 28.74 17.65 29.8379 16.876C32.574 14.95 36.426 14.95 39.1621 16.876C40.2412 17.6355 41.7608 17.5311 42.6541 16.6059L43.3691 15.8909C45.1288 17.939 46.2 20.6546 46.2 23.56V25.2818L45.9803 25.8855L45.6656 25.2105L43.2733 24.3404L40.2902 25.7309L37.5727 33.2572L38.9631 36.2402L41.3564 37.1103L42.0113 36.8049L41.4425 38.3338C41.3125 38.6845 40.9732 38.9201 40.5988 38.9201H33.6V40.7201H40.5988C41.722 40.7201 42.7389 40.0134 43.13 38.9613C43.3018 38.4997 46.7968 29.0369 48.0001 25.7485V23.56C48 16.1157 41.9443 10 34.5 10C27.0557 10 21 16.1157 21 23.56V25.4409L24.6615 35.7199L27.6437 37.1103Z" fill="url(#paint0_radial)"/>
<defs>
<filter id="filter0_d" x="0" y="0" width="68" height="72" filterUnits="userSpaceOnUse" color-interpolation-filters="sRGB">
<feFlood flood-opacity="0" result="BackgroundImageFix"/>
<feColorMatrix in="SourceAlpha" type="matrix" values="0 0 0 0 0 0 0 0 0 0 0 0 0 0 0 0 0 0 127 0"/>
<feMorphology radius="7" operator="erode" in="SourceAlpha" result="effect1_dropShadow"/>
<feOffset dy="12"/>
<feGaussianBlur stdDeviation="7.5"/>
<feColorMatrix type="matrix" values="0 0 0 0 0.996078 0 0 0 0 0.658824 0 0 0 0 0.196078 0 0 0 1 0"/>
<feBlend mode="normal" in2="BackgroundImageFix" result="effect1_dropShadow"/>
<feBlend mode="normal" in="SourceGraphic" in2="effect1_dropShadow" result="shape"/>
</filter>
<radialGradient id="paint0_radial" cx="0" cy="0" r="1" gradientUnits="userSpaceOnUse" gradientTransform="translate(50.1257 40.7201) rotate(-139.387) scale(23.5966 24.2593)">
<stop stop-color="#F1F3F5" stop-opacity="0.355469"/>
<stop offset="1" stop-color="white"/>
</radialGradient>
</defs>
</svg>
